<svg width="135" height="55" fill="none" xmlns="http://www.w3.org/2000/svg"><path d="M0 23.564V2.2h2.802v7.274h10.346v2.466H2.802l-.067 11.477c0 7.073 3.933 11.087 10.413 11.087v2.533C4.608 37.05 0 31.984 0 23.564zm46.733 13.553c-5.402 0-8.608-2.074-9.686-5.873-1.064 3.812-4.405 5.873-9.888 5.873-5.74 0-9.686-3.206-9.686-10.817V9.54h2.734v16.691c0 6.21 2.87 8.352 7.275 8.352 5.011 0 8.15-2.667 8.15-7.678V9.54h2.735v17.432c0 4.877 3.072 7.611 8.016 7.611 4.472 0 7.543-2.141 7.543-8.352V9.541h2.735V26.3c.027 7.624-4.055 10.817-9.928 10.817zM63.828 4.678c-1.131 0-2.074-.809-2.074-1.873 0-.93.93-1.805 2.075-1.805 1.131 0 2.074.862 2.074 1.873 0 1.01-.943 1.805-2.075 1.805zm-1.4 32.116V9.54h2.734v27.24h-2.735v.013zm35.779 17.62c0-4.338-1.94-8.42-7.814-8.42H72.975l.067-.134h-.067c.202-4.675 1.535-8.218 5.011-9.942-4.877-2.142-8.217-6.817-8.217-12.354 0-8.877 7.207-13.956 15.357-13.956h4.675c3.745 0 4.944-2.533 4.944-5.348h1.333c-.067 2.465-.673 4.27-2.142 5.348h4.473v2.6s-6.48-.067-7.275-.067c4.406 1.603 7.612 6.277 7.612 11.423 0 7.747-6.345 13.688-14.428 13.688h-1.536c-4.81 0-6.938 2.802-7.544 6.21h13.687c3.799 0 5.011-2.533 5.011-5.348h1.334c-.135 2.734-.862 4.607-2.667 5.671 5.47 1.132 7.409 4.944 7.679 10.616h-2.075v.013zM84.25 12.154c-6.547 0-11.881 5.079-11.881 11.29 0 4.472 2.734 8.338 6.681 10.143-.673-1.064-.996-2.465-1.064-4.27h1.334c0 2.802 1.199 5.402 4.877 5.402h.067c6.547 0 11.882-5.012 11.882-11.29 0-6.21-5.348-11.275-11.896-11.275zm27.913 25.031c-2.398 0-6.548-.795-9.754-3.678l1.536-1.805c2.802 2.33 6.143 2.937 8.083 2.937 3.408-.068 6.614-2.075 6.547-5.146-.067-8.34-15.223-2.398-15.358-12.946-.067-4.069 4.069-7.208 8.474-7.342 1.873 0 5.537.471 8.608 2.802l-1.603 1.737c-2.276-1.603-5.213-2.074-6.749-2.074-3.004.067-6.076 2.007-6.076 4.81 0 8.015 15.156 2.532 15.358 12.891.081 4.419-3.92 7.747-9.066 7.814zm12.327-26.256c0-1.563 1.226-2.83 2.748-2.83 1.536 0 2.762 1.267 2.762 2.83 0 1.522-1.226 2.802-2.762 2.802-1.522 0-2.748-1.267-2.748-2.802zm4.971 0c0-1.294-.983-2.358-2.223-2.358-1.225 0-2.236 1.064-2.236 2.358 0 1.28.997 2.33 2.236 2.33 1.24 0 2.223-1.064 2.223-2.33zm-3.166-1.388c.229-.027.512-.054.809-.054.821 0 1.199.39 1.199.903 0 .336-.175.66-.499.808l.674 1.078h-.701l-.539-.943c-.067.013-.107.013-.148.013-.054 0-.108 0-.215-.013v.943h-.593V9.54h.013zm.607 1.307c.094.013.161.013.229.013.336 0 .538-.161.538-.458 0-.242-.175-.39-.498-.39-.094 0-.175 0-.256.013v.822h-.013z" fill="#FCF8F3"/></svg>