<svg width="135" height="55" viewBox="0 0 135 55" fill="none" xmlns="http://www.w3.org/2000/svg">
<path d="M0 23.5645V2.19873H2.80207V9.47334H13.1482V11.9386H2.80207L2.73471 23.4163C2.73471 30.4889 6.66839 34.5034 13.1482 34.5034V37.036C4.60725 37.0495 0 31.9842 0 23.5645Z" fill="#FCF8F3"/>
<path d="M46.7328 37.1172C41.3307 37.1172 38.1245 35.0426 37.0468 31.2436C35.9825 35.056 32.6416 37.1172 27.1587 37.1172C21.4198 37.1172 17.4727 33.911 17.4727 26.2996V9.54102H20.2074V26.2322C20.2074 32.4426 23.0768 34.5845 27.482 34.5845C32.4934 34.5845 35.6322 31.9172 35.6322 26.9058V9.54102H38.367V26.9731C38.367 31.8498 41.4385 34.5845 46.3825 34.5845C50.855 34.5845 53.9265 32.4426 53.9265 26.2322V9.54102H56.6613V26.2996C56.6882 33.9244 52.6063 37.1172 46.7328 37.1172Z" fill="#FCF8F3"/>
<path d="M63.8285 4.67772C62.6969 4.67772 61.7539 3.86943 61.7539 2.80518C61.7539 1.87565 62.6834 1 63.8285 1C64.9601 1 65.9031 1.86218 65.9031 2.87254C65.9031 3.8829 64.9601 4.67772 63.8285 4.67772ZM62.4275 36.7938V9.54093H65.1622V36.7803H62.4275V36.7938Z" fill="#FCF8F3"/>
<path d="M98.2069 54.4142C98.2069 50.0764 96.267 45.9945 90.3934 45.9945H72.9748L73.0421 45.8598H72.9748C73.1768 41.1852 74.5105 37.6422 77.9862 35.9178C73.1095 33.7759 69.7686 29.1013 69.7686 23.5645C69.7686 14.6868 76.9758 9.60796 85.1261 9.60796H89.8007C93.5458 9.60796 94.7447 7.07531 94.7447 4.25977H96.0784C96.011 6.72505 95.4048 8.53024 93.9364 9.60796H98.409V12.208C98.409 12.208 91.9292 12.1406 91.1344 12.1406C95.5395 13.7437 98.7458 18.4184 98.7458 23.5645C98.7458 31.3106 92.4007 37.2515 84.3178 37.2515H82.782C77.9727 37.2515 75.8442 40.0536 75.238 43.4619H88.925C92.724 43.4619 93.9364 40.9292 93.9364 38.1137H95.2701C95.1354 40.8484 94.4079 42.721 92.6027 43.7852C98.0722 44.9168 100.012 48.7292 100.282 54.4007H98.2069V54.4142ZM84.2504 12.1541C77.7033 12.1541 72.3686 17.2329 72.3686 23.4432C72.3686 27.9158 75.1033 31.7821 79.0504 33.5873C78.3768 32.523 78.0535 31.122 77.9862 29.3168H79.3199C79.3199 32.1189 80.5188 34.7189 84.1965 34.7189H84.2639C90.811 34.7189 96.1458 29.7075 96.1458 23.4298C96.1458 17.2194 90.7976 12.1541 84.2504 12.1541Z" fill="#FCF8F3"/>
<path d="M112.163 37.1849C109.765 37.1849 105.615 36.39 102.409 33.5071L103.945 31.702C106.747 34.0325 110.088 34.6387 112.028 34.6387C115.436 34.5714 118.642 32.5641 118.575 29.4926C118.508 21.1538 103.352 27.0947 103.217 16.5465C103.15 12.4781 107.286 9.3393 111.691 9.20459C113.564 9.20459 117.228 9.67609 120.299 12.0066L118.696 13.7444C116.42 12.1413 113.483 11.6698 111.947 11.6698C108.943 11.7372 105.871 13.6771 105.871 16.4792C105.871 24.4947 121.027 19.0118 121.229 29.3714C121.31 33.79 117.309 37.1175 112.163 37.1849Z" fill="#FCF8F3"/>
<path d="M124.49 10.9286C124.49 9.36593 125.716 8.09961 127.238 8.09961C128.774 8.09961 130 9.36593 130 10.9286C130 12.4509 128.774 13.7307 127.238 13.7307C125.716 13.7307 124.49 12.4643 124.49 10.9286ZM129.461 10.9286C129.461 9.63536 128.478 8.57111 127.238 8.57111C126.013 8.57111 125.002 9.63536 125.002 10.9286C125.002 12.2084 125.999 13.2592 127.238 13.2592C128.478 13.2592 129.461 12.1949 129.461 10.9286ZM126.295 9.54106C126.524 9.51411 126.807 9.48717 127.104 9.48717C127.925 9.48717 128.303 9.87784 128.303 10.3897C128.303 10.7265 128.128 11.0498 127.804 11.198L128.478 12.2757H127.777L127.238 11.3327C127.171 11.3462 127.131 11.3462 127.09 11.3462C127.036 11.3462 126.982 11.3462 126.875 11.3327V12.2757H126.282V9.54106H126.295ZM126.902 10.8478C126.996 10.8612 127.063 10.8612 127.131 10.8612C127.467 10.8612 127.669 10.6996 127.669 10.4032C127.669 10.1607 127.494 10.0125 127.171 10.0125C127.077 10.0125 126.996 10.0125 126.915 10.026V10.8478H126.902Z" fill="#FCF8F3"/>
</svg>
